<?xml version="1.0" encoding="utf-8"?>
<!-- Generator: Adobe Illustrator 27.3.1, SVG Export Plug-In . SVG Version: 6.00 Build 0)  -->
<svg version="1.1" id="Layer_1" xmlns="http://www.w3.org/2000/svg" xmlns:xlink="http://www.w3.org/1999/xlink" x="0px" y="0px"
	 viewBox="0 0 800 800" style="enable-background:new 0 0 800 800;" xml:space="preserve">
<style type="text/css">
	.st0{fill-rule:evenodd;clip-rule:evenodd;fill:#FFFFFF;}
</style>
<path class="st0" d="M554.7,367.4l-11.3,76.3H408.6v266.4h-81.9V443.7H203.8v-76.3h122.9v-69.9c0-96.9,63.8-159.5,163.2-159.5
	c42.3,0,69,2.3,84.3,4.1l-1,72.2H510c-1.7,0-42.7-3.2-72.4,21.9C418.5,252.7,409,276,409,305.7v61.7H554.7L554.7,367.4z M465,264.6
	c16-14.2,41.3-12.3,43-12.3h105.1l2.4-140.7l-15.7-3.7c-10.2-2.3-41.3-7.8-109.9-7.8c-122.2,0-204.2,79.5-204.2,197.4V329H162.8
	v152.6h122.9V748h163.9V481.6h129.7l22.5-152.2H449.9v-23.3C449.6,287.4,454.7,273.7,465,264.6L465,264.6z"/>
</svg>
