<?xml version="1.0" encoding="utf-8"?>
<!-- Generator: Adobe Illustrator 27.3.1, SVG Export Plug-In . SVG Version: 6.00 Build 0)  -->
<svg version="1.1" id="Layer_1" xmlns="http://www.w3.org/2000/svg" xmlns:xlink="http://www.w3.org/1999/xlink" x="0px" y="0px"
	 viewBox="0 0 800 800" style="enable-background:new 0 0 800 800;" xml:space="preserve">
<style type="text/css">
	.st0{fill-rule:evenodd;clip-rule:evenodd;fill:#FFFFFF;}
</style>
<g id="Page-1">
	<g id="Dribbble-Light-Preview" transform="translate(-340.000000, -7439.000000)">
		<g id="icons" transform="translate(56.000000, 160.000000)">
			<path id="instagram-_x5B__x23_167_x5D_" class="st0" d="M518.6,7284c-64.9,2.8-121.3,18.6-167,64.3
				c-45.7,45.7-61.5,102.1-64.3,166.4c-1.7,40.1-12.4,344.1,18.6,423.7c20.9,53.6,62.1,94.8,116.2,116.2
				c25.4,9.6,54.2,16.4,96.5,18.6c354.3,15.8,485.8,7.3,541-134.3c9.6-25.4,16.4-54.2,18.6-96.5c16.4-355.4-2.8-432.2-64.3-493.7
				C964.9,7299.2,907.3,7265.9,518.6,7284 M522,8001.6c-38.9-1.7-59.8-8.5-73.9-13.5c-35.5-13.5-62.1-40.1-75.6-75
				c-23.7-60.4-15.8-348.1-13.5-394.4c2.3-45.7,11.3-87.4,43.4-119.6c40.1-39.5,91.4-59.2,441.2-43.4c45.7,2.3,87.4,11.3,119.6,43.4
				c40.1,39.5,59.2,91.4,43.4,440.1c-1.7,38.9-8.5,59.8-13.5,73.9C957,8005,874,8017.4,522,8001.6 M847.5,7466.8
				c0,26.5,21.4,47.4,48,47.4c26.5,0,48-21.4,48-47.4c0-26.5-21.4-47.4-48-47.4C869,7418.8,847.5,7440.2,847.5,7466.8 M478.6,7678.3
				c0,112.3,91.4,203.7,204.2,203.7S887,7790.6,887,7678.3c0-112.3-91.4-203.7-204.2-203.7S478.6,7566.1,478.6,7678.3 M550.2,7678.3
				c0-72.8,59.2-132,132.6-132s132.6,59.2,132.6,132c0,73.3-59.2,132.6-132.6,132.6S550.2,7751.7,550.2,7678.3"/>
		</g>
	</g>
</g>
</svg>
