<?xml version="1.0" encoding="utf-8"?>
<!-- Generator: Adobe Illustrator 27.3.1, SVG Export Plug-In . SVG Version: 6.00 Build 0)  -->
<svg version="1.1" id="Layer_1" xmlns="http://www.w3.org/2000/svg" xmlns:xlink="http://www.w3.org/1999/xlink" x="0px" y="0px"
	 viewBox="0 0 31.8 26" style="enable-background:new 0 0 31.8 26;" xml:space="preserve">
<style type="text/css">
	.st0{fill:#FFFFFF;}
</style>
<path class="st0" d="M19.8,4.5c1.3,0,2.9,0.6,3.7,1.6c1.1-0.2,2.1-0.6,3-1.2C26.1,6,25.4,7,24.4,7.6c0.9-0.1,1.8-0.4,2.7-0.8
	c-0.6,1-1.4,1.9-2.3,2.6c0,0.2,0,0.4,0,0.6c0,6.6-4.5,14.2-13.2,14.2c-2.6,0-5.3-0.8-7.3-2.2c0.4,0,0.7,0.1,1.1,0.1
	c2.2,0,4.2-0.8,5.8-2.1c-2.1,0-3.8-1.5-4.4-3.5c0.3,0.1,0.6,0.1,0.9,0.1c0.4,0,0.8-0.1,1.2-0.2c-2.1-0.5-3.8-2.5-3.8-4.9
	c0,0,0,0,0-0.1c0.6,0.4,1.4,0.6,2.1,0.6c-1.3-0.9-2.1-2.4-2.1-4.2c0-0.9,0.2-1.8,0.6-2.5c2.3,3,5.8,5,9.6,5.2
	c-0.1-0.4-0.1-0.8-0.1-1.1C15.4,6.7,17.2,4.5,19.8,4.5 M27.1,6.8L27.1,6.8 M19.8,2.7c-3.2,0-5.6,2.5-6,5.9c-2.6-0.6-5-2.1-6.7-4.3
	C6.8,3.8,6.4,3.6,5.9,3.6c0,0-0.1,0-0.1,0c-0.5,0-1,0.4-1.3,0.9c-0.6,1-0.9,2.2-0.9,3.4c0,0.8,0.1,1.6,0.4,2.3
	c-0.3,0.3-0.4,0.8-0.4,1.2v0.1c0,1.8,0.6,3.4,1.7,4.6c-0.1,0.3,0,0.6,0,0.9c0.4,1.2,1,2.2,1.9,3c-0.6,0.1-1.2,0.2-1.8,0.2
	c-0.3,0-0.6,0-0.9-0.1c-0.1,0-0.1,0-0.2,0c-0.7,0-1.3,0.5-1.5,1.2c-0.3,0.8,0,1.7,0.7,2.1c2.3,1.6,5.2,2.5,8.2,2.5
	c5.6,0,9.1-2.8,11-5.2c2.3-2.9,3.7-6.7,3.8-10.5c0.8-0.7,1.4-1.5,2-2.4c0.2-0.3,0.3-0.7,0.3-1.1c0-0.6-0.3-1.1-0.7-1.5
	c0.2-0.7,0-1.4-0.5-1.9c-0.3-0.3-0.7-0.4-1-0.4c-0.3,0-0.6,0.1-0.8,0.2c-0.5,0.3-1.1,0.6-1.7,0.8C22.8,3.2,21.3,2.7,19.8,2.7
	L19.8,2.7z"/>
</svg>
