<?xml version="1.0" encoding="utf-8"?>
<!-- Generator: Adobe Illustrator 27.3.1, SVG Export Plug-In . SVG Version: 6.00 Build 0)  -->
<svg version="1.1" id="Layer_1" xmlns="http://www.w3.org/2000/svg" xmlns:xlink="http://www.w3.org/1999/xlink" x="0px" y="0px"
	 viewBox="0 0 800 800" style="enable-background:new 0 0 800 800;" xml:space="preserve">
<style type="text/css">
	.st0{fill-rule:evenodd;clip-rule:evenodd;fill:#FFFFFF;}
</style>
<path class="st0" d="M248.9,164.7c94.2-12,207.9-12,302.2,0c85.6,10.9,152,64.8,164.7,122.9c15.4,70.3,15.4,155.5,0,225.8
	c-12.7,58.1-79,112.1-164.7,122.9c-94.2,12-207.9,12-302.2,0c-85.6-10.9-152-64.8-164.7-122.9c-15.4-70.3-15.4-155.5,0-225.8
	C96.9,229.6,163.3,175.6,248.9,164.7z M561.3,100.1c-101-12.8-221.6-12.8-322.6,0c-109.6,13.9-206,84.2-225.8,175
	c-17.2,78.6-17.2,172.3,0,250.9c19.9,90.9,116.2,161.1,225.8,175c101,12.8,221.6,12.8,322.6,0c109.6-13.9,206-84.2,225.8-175
	c17.2-78.6,17.2-172.3,0-250.9C767.3,184.2,670.9,114,561.3,100.1z M347.4,242.8c-11.2-6.7-25.5-7.3-37.3-1.6
	c-11.8,5.7-19.2,16.7-19.2,28.8v261.2c0,12,7.4,23.1,19.2,28.8c11.8,5.7,26.2,5.1,37.3-1.6l218.2-130.6
	c10.1-6.1,16.2-16.2,16.2-27.2s-6.1-21.1-16.2-27.2L347.4,242.8z M479.9,400.6l-116.3,69.6V331L479.9,400.6z"/>
</svg>
